<?xml version="1.0" standalone="no"?>
<!DOCTYPE svg PUBLIC "-//W3C//DTD SVG 20010904//EN"
 "http://www.w3.org/TR/2001/REC-SVG-20010904/DTD/svg10.dtd">
<svg version="1.0" xmlns="http://www.w3.org/2000/svg"
 width="256.000000pt" height="256.000000pt" viewBox="0 0 256.000000 256.000000"
 preserveAspectRatio="xMidYMid meet">

<g transform="translate(0.000000,256.000000) scale(0.100000,-0.100000)"
fill="#000000" stroke="none">
<path d="M0 1280 l0 -1280 1280 0 1280 0 0 1280 0 1280 -1280 0 -1280 0 0
-1280z m2400 0 l0 -1120 -1120 0 -1120 0 0 1120 0 1120 1120 0 1120 0 0 -1120z"/>
<path d="M1488 1283 l-528 -528 -210 210 -210 210 -57 -58 -58 -57 268 -268
267 -267 585 585 c322 322 585 590 585 595 0 13 -92 105 -105 105 -6 0 -247
-237 -537 -527z"/>
</g>
</svg>
