<?xml version="1.0" standalone="no"?>
<!DOCTYPE svg PUBLIC "-//W3C//DTD SVG 20010904//EN"
 "http://www.w3.org/TR/2001/REC-SVG-20010904/DTD/svg10.dtd">
<svg version="1.0" xmlns="http://www.w3.org/2000/svg"
 width="256.000000pt" height="256.000000pt" viewBox="0 0 256.000000 256.000000"
 preserveAspectRatio="xMidYMid meet">

<g transform="translate(0.000000,256.000000) scale(0.100000,-0.100000)"
fill="#000000" stroke="none">
<path d="M80 1285 l0 -965 1200 0 1200 0 0 965 0 965 -1200 0 -1200 0 0 -965z
m2102 -667 l-177 -178 -904 2 -903 3 197 153 c108 83 189 152 180 152 -28 0
-89 37 -132 82 -47 47 -73 114 -73 186 l0 42 75 0 75 0 0 -35 c0 -102 69 -161
194 -164 13 -1 -1 -17 -47 -53 -36 -29 -63 -56 -61 -60 9 -14 148 -9 201 7
104 31 179 132 190 256 l6 58 191 147 c105 81 196 151 202 156 8 6 47 -88 130
-307 l118 -316 64 3 64 3 172 460 173 460 39 5 39 5 3 52 3 52 -130 3 -130 3
207 160 207 160 3 -660 2 -660 -178 -177z m-1062 1117 c0 -54 -1 -55 -29 -55
-16 0 -43 -3 -60 -6 l-31 -6 0 -298 0 -297 -71 -54 c-39 -30 -73 -53 -75 -51
-3 1 -5 159 -4 351 l0 348 -31 7 c-17 3 -46 6 -64 6 -37 0 -45 12 -45 71 l0
39 205 0 205 0 0 -55z m430 0 l0 -55 -40 -6 c-49 -8 -51 -22 -15 -114 14 -35
25 -69 25 -76 0 -6 -25 -31 -56 -55 -67 -51 -59 -59 -123 116 -24 66 -49 123
-55 127 -6 4 -26 8 -43 8 l-33 0 0 55 0 55 170 0 170 0 0 -55z m355 35 c-10
-11 -22 -20 -27 -20 -4 0 -8 9 -8 20 0 15 7 20 27 20 25 0 26 0 8 -20z m12
-91 c24 -3 45 -8 48 -11 4 -4 -165 -480 -252 -708 -4 -10 -8 -6 -15 15 -5 17
-46 132 -90 257 -44 125 -78 232 -76 238 1 5 77 68 168 139 160 124 165 127
170 102 4 -22 12 -27 47 -32z m-1103 -770 c-10 -12 -32 -28 -49 -36 -35 -18
-33 -15 19 26 45 36 57 40 30 10z"/>
</g>
</svg>
