<?xml version="1.0" standalone="no"?>
<!DOCTYPE svg PUBLIC "-//W3C//DTD SVG 20010904//EN"
 "http://www.w3.org/TR/2001/REC-SVG-20010904/DTD/svg10.dtd">
<svg version="1.0" xmlns="http://www.w3.org/2000/svg"
 width="256.000000pt" height="256.000000pt" viewBox="0 0 256.000000 256.000000"
 preserveAspectRatio="xMidYMid meet">

<g transform="translate(0.000000,256.000000) scale(0.100000,-0.100000)"
fill="#000000" stroke="none">
<path d="M80 1285 l0 -965 1200 0 1200 0 0 965 0 965 -1200 0 -1200 0 0 -965z
m2280 -5 l0 -840 -1085 0 -1085 0 0 840 0 840 1085 0 1085 0 0 -840z"/>
<path d="M720 1731 l0 -49 68 -8 67 -9 0 -350 c0 -386 0 -383 -64 -438 -60
-50 -167 -43 -229 16 -24 23 -35 46 -44 89 l-12 58 -68 0 -69 0 6 -37 c32
-189 153 -284 345 -270 125 8 205 60 252 162 22 49 23 59 26 411 l3 362 55 7
54 6 0 50 0 49 -195 0 -195 0 0 -49z"/>
<path d="M1222 1728 l3 -53 36 -3 37 -3 173 -464 174 -465 62 0 61 0 16 43 c9
23 88 231 174 462 129 342 162 420 178 423 64 10 64 10 64 62 l0 50 -165 0
-165 0 0 -49 c0 -53 8 -61 60 -61 16 0 32 -5 35 -10 5 -8 -133 -399 -247 -700
-9 -22 -14 -14 -44 75 -19 55 -76 217 -128 360 -51 143 -91 262 -90 264 2 2
21 7 41 10 38 6 38 7 41 59 l3 52 -161 0 -161 0 3 -52z"/>
</g>
</svg>
